<svg width="25" height="25" viewBox="0 0 25 25" fill="none" xmlns="http://www.w3.org/2000/svg">
<path id="icon-google2" d="M22.35 10.5771C22.4781 11.2635 22.5479 11.9812 22.5479 12.7302C22.5479 18.5885 18.6271 22.7542 12.7052 22.7542C11.3585 22.7546 10.0249 22.4896 8.78062 21.9744C7.53635 21.4593 6.40577 20.704 5.4535 19.7517C4.50123 18.7994 3.74593 17.6688 3.23076 16.4246C2.71558 15.1803 2.45063 13.8467 2.45104 12.5C2.45063 11.1533 2.71558 9.81968 3.23076 8.5754C3.74593 7.33112 4.50123 6.20055 5.4535 5.24828C6.40577 4.29601 7.53635 3.54071 8.78062 3.02554C10.0249 2.51036 11.3585 2.24541 12.7052 2.24582C15.474 2.24582 17.7875 3.26457 19.5625 4.91874L16.6719 7.80936V7.80207C15.5958 6.77707 14.2302 6.25103 12.7052 6.25103C9.32188 6.25103 6.57188 9.10936 6.57188 12.4937C6.57188 15.8771 9.32188 18.7417 12.7052 18.7417C15.775 18.7417 17.8646 16.9864 18.2938 14.576H12.7052V10.5771H22.351H22.35Z" fill="#404756"/>
</svg>
